<svg width="40" height="40" viewBox="0 0 40 40" fill="none" xmlns="http://www.w3.org/2000/svg">
<g clip-path="url(#clip0_14363_250)">
<path d="M0 0C6.6 0 13.2 0 20 0C20.066 5.28 20.132 10.56 20.2 16C20.53 14.878 20.86 13.756 21.2 12.6C21.4417 12.0105 21.6663 11.4789 21.9625 10.925C22.0644 10.7287 22.0644 10.7287 22.1685 10.5284C24.6777 5.81902 28.8545 2.38311 33.9198 0.775928C36.0452 0.129566 37.6808 0 40 0C40 6.6 40 13.2 40 20C32.08 20.099 32.08 20.099 24 20.2C25.122 20.53 26.244 20.86 27.4 21.2C27.9855 21.4375 28.5125 21.6578 29.0625 21.95C29.1926 22.0172 29.3227 22.0843 29.4567 22.1535C30.7417 22.8384 31.878 23.6713 33 24.6C33.1622 24.7317 33.3243 24.8635 33.4914 24.9992C37.0854 28.0421 39.3256 32.5702 40 37.2C40 38.124 40 39.048 40 40C33.4 40 26.8 40 20 40C19.934 34.72 19.868 29.44 19.8 24C19.47 25.122 19.14 26.244 18.8 27.4C18.5625 27.9855 18.3422 28.5125 18.05 29.0625C17.9828 29.1926 17.9157 29.3227 17.8465 29.4567C17.1616 30.7417 16.3287 31.878 15.4 33C15.2683 33.1622 15.1365 33.3243 15.0008 33.4914C11.9136 37.1377 7.45066 39.239 2.8 40C1.876 40 0.952 40 0 40C0 33.4 0 26.8 0 20C5.28 19.934 10.56 19.868 16 19.8C14.878 19.47 13.756 19.14 12.6 18.8C12.0105 18.5583 11.4789 18.3337 10.925 18.0375C10.7287 17.9356 10.7287 17.9356 10.5284 17.8315C5.81902 15.3223 2.38311 11.1455 0.775928 6.08018C0.129566 3.95482 0 2.31921 0 0Z" fill="#AEDF33"/>
</g>
<defs>
<clipPath id="clip0_14363_250">
<rect width="40" height="40" fill="white"/>
</clipPath>
</defs>
</svg>
